<?xml version="1.0" encoding="utf-8"?>
<!-- Generator: Adobe Illustrator 23.0.4, SVG Export Plug-In . SVG Version: 6.00 Build 0)  -->
<svg version="1.1" id="Layer_1" xmlns="http://www.w3.org/2000/svg" xmlns:xlink="http://www.w3.org/1999/xlink" x="0px" y="0px"
	 viewBox="0 0 178.4 149.4" style="enable-background:new 0 0 178.4 149.4;" xml:space="preserve">
<style type="text/css">
	.st0{fill:url(#SVGID_1_);}
	.st1{fill:url(#SVGID_2_);}
	.st2{fill:url(#SVGID_3_);}
	.st3{fill:url(#SVGID_4_);}
	.st4{fill:url(#SVGID_5_);}
	.st5{fill:url(#SVGID_6_);}
	.st6{fill:url(#SVGID_7_);}
</style>
<title>Asset 1</title>
<g>
	<g id="Layer_1-2">
		
			<linearGradient id="SVGID_1_" gradientUnits="userSpaceOnUse" x1="134.1813" y1="153.9086" x2="39.0213" y2="58.7486" gradientTransform="matrix(1 0 0 -1 0 152)">
			<stop  offset="0.14" style="stop-color:#E92987"/>
			<stop  offset="0.45" style="stop-color:#B11D91"/>
			<stop  offset="1" style="stop-color:#5409A2"/>
		</linearGradient>
		<path class="st0" d="M21.7,36c1.2,0.1,2.4-0.2,3.5-0.8l12.4,12.4H50c-0.3,1.1-0.7,2.1-1,3.2h8.9L68.5,45h15.4
			c0.7-1.2,1.4-2.4,2.1-3.5c3.1-4.6,7.2-8.4,12-11c4.9-2.7,10.9-4.1,18-4.1c7.6,0,14.1,2,19.4,6c5.3,4,8.9,10,10.8,18h30
			C175,35.6,167.6,22,155.9,13c-5.6-4.3-11.9-7.6-18.6-9.7C130.4,1.1,123.2,0,116,0c-10.1-0.2-20.2,1.8-29.5,5.8
			c-8.4,3.7-16,9.1-22.1,16c-1.5,1.7-2.9,3.5-4.2,5.3h-6.4c-0.7-2.4-2.9-4-5.4-3.9c-3.2,0-5.9,2.6-6,5.8c0,3.2,2.7,5.8,5.9,5.8
			c2.5,0,4.7-1.6,5.5-3.9h3.9c-1.1,1.8-2.2,3.7-3.2,5.7h8.4l10.8-11c-0.8-1.3-1.2-2.8-1.3-4.4c0-4.6,3.7-8.3,8.3-8.3
			c4.6,0.1,8.2,3.7,8.3,8.3c-0.1,4.5-3.8,8.1-8.3,8.1c-1.2,0.1-2.4-0.2-3.5-0.8L64.7,40.8H52.5c-0.3,0.8-0.7,1.6-1,2.4h-12l-10.8-11
			c0.8-1.3,1.2-2.8,1.3-4.3c0-4.6-3.7-8.3-8.3-8.3c-4.5,0.1-8.2,3.7-8.3,8.3C13.5,32.4,17.2,36,21.7,36z M48.4,32.3
			c-1.8,0-3.3-1.5-3.3-3.3s1.5-3.3,3.3-3.3c0,0,0,0,0,0c1.8,0,3.3,1.5,3.3,3.3S50.2,32.3,48.4,32.3C48.4,32.3,48.4,32.3,48.4,32.3z
			 M21.7,23.2c2.6,0,4.7,2.1,4.8,4.8c-0.1,2.5-2.2,4.5-4.8,4.6c-2.6,0-4.7-2.1-4.7-4.7C17,25.3,19.1,23.2,21.7,23.2z"/>
		
			<linearGradient id="SVGID_2_" gradientUnits="userSpaceOnUse" x1="143.8843" y1="144.2157" x2="48.7143" y2="49.0557" gradientTransform="matrix(1 0 0 -1 0 152)">
			<stop  offset="0.14" style="stop-color:#E92987"/>
			<stop  offset="0.45" style="stop-color:#B11D91"/>
			<stop  offset="1" style="stop-color:#5409A2"/>
		</linearGradient>
		<path class="st1" d="M59.3,95.7c0-1.8-1.4-3.3-3.2-3.3c0,0,0,0-0.1,0c-1.8,0-3.2,1.4-3.2,3.2c0,1.8,1.4,3.2,3.2,3.2c0,0,0,0,0,0
			C57.8,98.9,59.2,97.5,59.3,95.7z"/>
		
			<linearGradient id="SVGID_3_" gradientUnits="userSpaceOnUse" x1="122.992" y1="165.108" x2="27.822" y2="69.948" gradientTransform="matrix(1 0 0 -1 0 152)">
			<stop  offset="0.14" style="stop-color:#E92987"/>
			<stop  offset="0.45" style="stop-color:#B11D91"/>
			<stop  offset="1" style="stop-color:#5409A2"/>
		</linearGradient>
		<path class="st2" d="M8.3,63.4c3.5,0,6.5-2.1,7.7-5.4c0.2-0.3,0.3-0.7,0.4-1H36l10.5,7.3c-0.1,0.5-0.1,1-0.1,1.6H57
			c0.8-3.5,4-6,7.7-6c4.6,0.2,8.2,4,8,8.6c-0.2,4.4-3.6,7.8-8,8c-3.6,0-6.8-2.5-7.7-6H45.9c0,0.7-0.1,1.4-0.1,2.2H29.3
			c-0.8-3.5-4-6-7.7-6c-4.6,0.2-8.2,4-8,8.6c0.2,4.4,3.6,7.8,8,8c3.6,0,6.8-2.5,7.7-6h16.5c0,0.6,0,1.1,0.1,1.7h13.9l10.5,10.7h8.2
			c-0.9-4.7-1.4-9.4-1.4-14.2c0-6.1,0.7-12.2,2.1-18.2c0.6-2.6,1.4-5.1,2.4-7.6H70.6l-10.8,5.5H47.9c-0.3,1.3-0.6,2.7-0.8,4L38,52.4
			H16.1c-1.2-3.3-4.3-5.5-7.8-5.4c-4.5-0.2-8.3,3.4-8.5,7.9s3.4,8.3,7.9,8.5C7.9,63.4,8.1,63.4,8.3,63.4L8.3,63.4z M21.7,79.5
			c-2.6,0.1-4.7-2-4.7-4.5c0,0,0,0,0-0.1c0-2.6,2.1-4.7,4.8-4.8c2.5,0.1,4.5,2.2,4.5,4.8C26.2,77.4,24.2,79.4,21.7,79.5z M8.3,50.5
			c2.6,0,4.6,2.2,4.6,4.7c0,0,0,0,0,0.1c-0.1,2.5-2.1,4.5-4.6,4.5c-2.5-0.1-4.6-2-4.8-4.5C3.5,52.7,5.7,50.6,8.3,50.5z"/>
		
			<linearGradient id="SVGID_4_" gradientUnits="userSpaceOnUse" x1="134.5103" y1="153.5897" x2="39.3503" y2="58.4197" gradientTransform="matrix(1 0 0 -1 0 152)">
			<stop  offset="0.14" style="stop-color:#E92987"/>
			<stop  offset="0.45" style="stop-color:#B11D91"/>
			<stop  offset="1" style="stop-color:#5409A2"/>
		</linearGradient>
		<path class="st3" d="M69.4,68.2c0-2.6-2.1-4.7-4.6-4.7s-4.7,2.1-4.7,4.6c0,0,0,0,0,0c0,2.5,2,4.5,4.5,4.6
			C67.3,72.8,69.4,70.8,69.4,68.2C69.4,68.2,69.4,68.2,69.4,68.2z"/>
		
			<linearGradient id="SVGID_5_" gradientUnits="userSpaceOnUse" x1="118.908" y1="169.192" x2="23.748" y2="74.022" gradientTransform="matrix(1 0 0 -1 0 152)">
			<stop  offset="0.14" style="stop-color:#E92987"/>
			<stop  offset="0.45" style="stop-color:#B11D91"/>
			<stop  offset="1" style="stop-color:#5409A2"/>
		</linearGradient>
		<path class="st4" d="M80.7,25.7c2.5,0,4.5-2.1,4.6-4.6c0.1-2.6-2-4.7-4.5-4.8c0,0,0,0,0,0c-2.6,0-4.7,2.1-4.8,4.8
			C76,23.7,78.1,25.7,80.7,25.7z"/>
		
			<linearGradient id="SVGID_6_" gradientUnits="userSpaceOnUse" x1="174.0467" y1="114.0533" x2="78.8867" y2="18.8833" gradientTransform="matrix(1 0 0 -1 0 152)">
			<stop  offset="0.14" style="stop-color:#E92987"/>
			<stop  offset="0.45" style="stop-color:#B11D91"/>
			<stop  offset="1" style="stop-color:#5409A2"/>
		</linearGradient>
		<path class="st5" d="M87.9,128.8c0.1-2.5-1.9-4.5-4.3-4.6c-0.1,0-0.1,0-0.2,0c-2.5-0.1-4.6,1.8-4.7,4.2c0,0.1,0,0.2,0,0.3
			c0,2.6,2.2,4.6,4.7,4.6c0,0,0,0,0,0C85.9,133.3,87.9,131.3,87.9,128.8z"/>
		
			<linearGradient id="SVGID_7_" gradientUnits="userSpaceOnUse" x1="173.4587" y1="114.6313" x2="78.2987" y2="19.4713" gradientTransform="matrix(1 0 0 -1 0 152)">
			<stop  offset="0.14" style="stop-color:#E92987"/>
			<stop  offset="0.45" style="stop-color:#B11D91"/>
			<stop  offset="1" style="stop-color:#5409A2"/>
		</linearGradient>
		<path class="st6" d="M141.6,79.1c-12.9,0-23.3,10.4-23.3,23.3H148c-1.5,4.9-4.2,9.3-7.9,12.9c-5.7,5.3-13.7,7.9-24.1,7.9
			c-7.1,0-13.1-1.4-18-4.1c-4.8-2.6-8.9-6.4-12-10.9c-2.9-4.3-5.1-9.1-6.4-14.2H68.5L57.9,83.4H46.1c0,0.6,0.1,1.1,0.1,1.7h-3.7
			L33,93.8H16.4c-0.9-3.3-4-5.5-7.4-5.4c-4.5-0.1-8.2,3.5-8.3,7.9c0,0,0,0.1,0,0.1c0,4.6,3.7,8.3,8.3,8.3c3.9-0.1,7.2-2.8,8-6.6
			h17.9l9.6-8.6h2.4c0.2,1.4,0.5,2.8,0.8,4.1h3.2l0,0c0.7-2.3,2.8-3.8,5.2-3.8c3.2-0.1,5.9,2.5,6,5.7c0,0,0,0.1,0,0.1
			c-0.1,3.2-2.8,5.8-6,5.8c-2.4,0-4.5-1.6-5.2-3.9l-0.1-0.1h-2.3c0.4,1.5,0.8,3,1.3,4.5h-8.8l-12,12.2c-1.4-0.7-2.9-1.1-4.5-1
			c-4.6,0.2-8.1,4.1-7.9,8.6c0.2,4.6,4.1,8.1,8.6,7.9c1.8-0.1,3.6-0.8,5-2c3.3-2.5,4.1-7,1.9-10.5l11-10.8h8.3
			c0.3,0.9,0.7,1.8,1.1,2.7h15l12,12.2c1.4-0.7,2.9-1.1,4.5-1c3.6,0.3,6.6,2.9,7.3,6.5c1.1,4.3-1.4,8.7-5.7,9.8
			c-2.6,0.7-5.3,0-7.3-1.7c-3.5-2.9-4-7.3-1.9-10.5l-11-10.8H54.7c0.8,1.6,1.7,3.1,2.6,4.6h-3.6l0,0c-0.7-2.3-2.8-3.8-5.2-3.8
			c-3.2-0.1-5.9,2.5-6,5.7c0,0,0,0.1,0,0.1c0.1,3.2,2.8,5.8,6,5.8c2.4-0.1,4.5-1.7,5.2-4c0,0,0.1-0.1,0.1-0.1h6.1
			c1.4,2,2.9,3.9,4.6,5.8c6.1,6.8,13.7,12.1,22.1,15.7c9.3,3.9,19.4,5.9,29.5,5.7c7.1,0,14.1-1.5,20.6-4.3c6.8-2.9,13-7.9,18.6-15.1
			c0.3,1.5,0.8,3.1,1.5,4.5c3.5,9,12.1,14.9,21.7,14.9V79.1H141.6z M13.3,97.9c-0.7,2.5-3.3,3.9-5.8,3.2c-2.5-0.7-3.9-3.3-3.2-5.8
			C5,93.3,6.9,91.9,9,92c2.5,0.1,4.6,2.2,4.5,4.7C13.5,97.1,13.4,97.5,13.3,97.9z M24.8,126c-2.4-0.2-4.3-2.2-4.4-4.6
			c0-2.5,2.1-4.5,4.6-4.5c0.5,0,1.1,0.1,1.6,0.3c1.5,0.4,2.6,1.6,3,3.1c0.7,2.5-0.8,5-3.2,5.6C25.8,126,25.3,126,24.8,126z
			 M51.7,121c-0.3,1.2-1.2,2.2-2.5,2.4c-1.7,0.5-3.5-0.5-4-2.2c-0.5-1.7,0.5-3.5,2.2-4c0.3-0.1,0.6-0.1,0.9-0.1
			c1.9,0,3.3,1.6,3.3,3.5C51.7,120.7,51.7,120.9,51.7,121z"/>
	</g>
</g>
</svg>
